<svg xmlns="http://www.w3.org/2000/svg" width="22" height="19" viewBox="0 0 22 19" fill="none"><path d="M22 9.49998C22 7.78376 21.3679 6.13784 20.2426 4.92429C19.1174 3.71075 17.5913 3.02898 16 3.02898C13.4 3.02898 11.25 5.23991 10.05 9.17643C9.15 12.1423 7.65 13.814 6 13.814C4.93913 13.814 3.92172 13.3595 3.17157 12.5504C2.42143 11.7414 2 10.6441 2 9.49998C2 8.35584 2.42143 7.25855 3.17157 6.44952C3.92172 5.64049 4.93913 5.18598 6 5.18598H6.6L5.8 6.04878C5.69131 6.15255 5.6061 6.28179 5.55094 6.4266C5.49577 6.57141 5.47211 6.72792 5.48176 6.88413C5.49142 7.04034 5.53414 7.19208 5.60664 7.32771C5.67914 7.46334 5.7795 7.57925 5.9 7.66653C6.10066 7.82319 6.34622 7.89829 6.59327 7.87856C6.84031 7.85882 7.07293 7.74552 7.25 7.55868L9.7 4.86243C9.79699 4.76645 9.87443 4.64979 9.92741 4.51982C9.98038 4.38986 10.0077 4.24945 10.0077 4.10748C10.0077 3.96552 9.98038 3.8251 9.92741 3.69514C9.87443 3.56518 9.79699 3.44851 9.7 3.35253L7.25 0.656286C7.07293 0.469447 6.84031 0.356145 6.59327 0.336408C6.34622 0.316672 6.10066 0.391774 5.9 0.548436C5.7795 0.63572 5.67914 0.751627 5.60664 0.887255C5.53414 1.02288 5.49142 1.17463 5.48176 1.33083C5.47211 1.48704 5.49577 1.64356 5.55094 1.78837C5.6061 1.93317 5.69131 2.06242 5.8 2.16618L6.6 3.02898H6C4.4087 3.02898 2.88258 3.71075 1.75736 4.92429C0.632141 6.13784 0 7.78376 0 9.49998C0 11.2162 0.632141 12.8621 1.75736 14.0757C2.88258 15.2892 4.4087 15.971 6 15.971C8.6 15.971 10.75 13.7601 11.95 9.82353C12.85 6.85766 14.35 5.18598 16 5.18598C17.0609 5.18598 18.0783 5.64049 18.8284 6.44952C19.5786 7.25855 20 8.35584 20 9.49998C20 10.6441 19.5786 11.7414 18.8284 12.5504C18.0783 13.3595 17.0609 13.814 16 13.814H15.4L16.2 12.9512C16.3087 12.8474 16.3939 12.7182 16.4491 12.5734C16.5042 12.4285 16.5279 12.272 16.5182 12.1158C16.5086 11.9596 16.4659 11.8079 16.3934 11.6722C16.3209 11.5366 16.2205 11.4207 16.1 11.3334C15.8993 11.1768 15.6538 11.1017 15.4067 11.1214C15.1597 11.1411 14.9271 11.2544 14.75 11.4413L12.3 14.1375C12.203 14.2335 12.1256 14.3502 12.0726 14.4801C12.0196 14.6101 11.9923 14.7505 11.9923 14.8925C11.9923 15.0344 12.0196 15.1749 12.0726 15.3048C12.1256 15.4348 12.203 15.5514 12.3 15.6474L14.75 18.3437C14.9271 18.5305 15.1597 18.6438 15.4067 18.6635C15.6538 18.6833 15.8993 18.6082 16.1 18.4515C16.2205 18.3642 16.3209 18.2483 16.3934 18.1127C16.4659 17.9771 16.5086 17.8253 16.5182 17.6691C16.5279 17.5129 16.5042 17.3564 16.4491 17.2116C16.3939 17.0668 16.3087 16.9375 16.2 16.8338L15.4 15.971H16C17.5913 15.971 19.1174 15.2892 20.2426 14.0757C21.3679 12.8621 22 11.2162 22 9.49998Z" fill="#84CC16"></path></svg>